<svg t="1703582758199" class="icon" viewBox="0 0 1024 1024" version="1.1" xmlns="http://www.w3.org/2000/svg" p-id="11574" width="40" height="40">
    <path d="M396.9024 340.6848l249.1904 249.1392a5.632 5.632 0 0 1 0.9216 6.8608c-13.4656 21.504-81.408 135.6288-99.584 286.3616a1.792 1.792 0 0 1-2.56 1.3824l-84.6336-51.0464c-0.768-0.512-1.1264-1.4336-0.6656-2.2528 7.936-16.64 84.0704-176.128 76.288-168.3456-8.192 8.192-60.928 64.1536-100.352 121.344l-22.6816 31.232s-89.088-59.904-116.5312-97.1264c-0.4096-0.6144-0.512-1.0752 0-1.5872 18.0736-21.9648 112.2304-144.384 112.2304-144.384l-160.0512 96.0512c-0.768 0.4096-1.5872 0.3072-2.2016-0.3584-7.7824-8.6016-61.2352-67.6864-76.6464-95.3856-0.3072-0.6144-0.3072-1.0752 0.256-1.5872 15.2576-12.288 101.4784-85.3504 101.4784-85.3504l-121.3952 42.9568a1.8944 1.8944 0 0 1-2.2016-0.8192L102.912 443.4944c-0.6144-1.024-0.2048-2.2528 1.024-2.56 21.2992-4.2496 199.5776-41.2672 286.1056-100.9664a5.2736 5.2736 0 0 1 6.8608 0.7168z m260.4032 379.5456a62.3104 62.3104 0 1 1 0 124.6208 62.3104 62.3104 0 0 1 0-124.6208z m110.3872-37.4272a33.9456 33.9456 0 1 1 0 67.84 33.9456 33.9456 0 0 1 0-67.84z m22.1184-562.7904a58.2144 58.2144 0 0 1 82.176 82.432l-157.6448 157.2864c-0.256 2.1504-0.512 3.584-0.6656 5.7856 35.1232 60.6208 34.9184 130.816-16.5888 184.9344a4.1984 4.1984 0 0 1-5.8368 0.1024L441.2928 300.544a4.1984 4.1984 0 0 1 0.1024-5.888c54.016-51.6096 124.2624-51.712 184.9344-16.5888l5.6832-0.6656z m-471.296 69.632a49.7664 49.7664 0 1 1 49.7152 86.1696 49.7664 49.7664 0 0 1-49.7152-86.1696z" fill="#1296db" p-id="11575"></path>
</svg>